<?xml version="1.0" encoding="utf-8"?>
<!-- Generator: Adobe Illustrator 27.3.1, SVG Export Plug-In . SVG Version: 6.00 Build 0)  -->
<svg version="1.1" id="Layer_1" xmlns="http://www.w3.org/2000/svg" xmlns:xlink="http://www.w3.org/1999/xlink" x="0px" y="0px"
	 viewBox="0 0 64 64" style="enable-background:new 0 0 64 64;" xml:space="preserve">
<g>
	<path d="M38.71,24.7c-0.05-0.07-0.03-0.14-0.03-0.21c0-2.4,0-4.79,0-7.19c0-0.92-0.09-1.83-0.41-2.7
		c-0.39-1.03-0.97-1.92-1.79-2.67c-0.58-0.53-1.23-0.95-1.95-1.25c-0.66-0.28-1.35-0.43-2.07-0.49c-0.75-0.06-1.48,0.02-2.2,0.19
		c-0.55,0.13-1.08,0.35-1.57,0.63c-0.6,0.33-1.14,0.75-1.61,1.25c-0.84,0.9-1.4,1.95-1.68,3.15c-0.07,0.31-0.08,0.63-0.19,0.93
		c-0.04,0.1-0.02,0.22-0.02,0.33c0,2.59,0,5.19,0,7.78c0,0.28,0,0.28-0.27,0.28c-0.31,0-0.63,0-0.94,0c-0.21,0-0.25-0.04-0.26-0.25
		c0-0.06,0-0.11,0-0.17c0-2.4-0.01-4.79,0-7.19c0-1.03,0.12-2.06,0.48-3.04c0.19-0.51,0.41-1.01,0.7-1.48
		c0.25-0.4,0.53-0.78,0.84-1.14c0.39-0.47,0.84-0.87,1.32-1.23c0.71-0.53,1.48-0.92,2.32-1.2c0.93-0.3,1.87-0.44,2.84-0.42
		c0.42,0.01,0.85,0.08,1.27,0.15c0.78,0.13,1.52,0.4,2.22,0.75c0.53,0.26,1.01,0.59,1.47,0.97c0.52,0.43,0.98,0.91,1.38,1.46
		c0.62,0.85,1.07,1.77,1.34,2.8c0.17,0.64,0.27,1.29,0.27,1.95c0,0.22,0.01,0.23,0.23,0.23c0.38,0,0.75,0,1.12,0
		c0.13,0,0.18,0.04,0.18,0.17c0,0.37,0,0.74,0,1.11c0,0.11-0.04,0.2-0.08,0.3c-0.84,1.83-1.68,3.65-2.52,5.48
		c-0.09,0.2-0.18,0.4-0.27,0.6C38.79,24.6,38.78,24.66,38.71,24.7z" fill="white"/>
	<path d="M28.31,30.63c-0.07-0.02-0.2,0.06-0.24-0.04c-0.03-0.08,0.09-0.14,0.16-0.19c0.72-0.63,1.44-1.26,2.16-1.89
		c0.5-0.44,1-0.89,1.5-1.34c0.4-0.35,0.81-0.7,1.21-1.06c0.15-0.13,0.26-0.05,0.38,0.02c0.92,0.52,1.84,1.04,2.76,1.56
		c1.1,0.62,2.2,1.23,3.3,1.85c0.22,0.13,0.35,0.34,0.49,0.53c0.09,0.13,0.16,0.14,0.3,0.06c1.49-0.94,2.99-1.87,4.49-2.8
		c0.11-0.07,0.21-0.13,0.32-0.2c0.03-0.02,0.07-0.04,0.1,0c0.03,0.04,0,0.07-0.02,0.1c-0.39,0.51-0.78,1.03-1.17,1.54
		c-0.43,0.56-0.85,1.13-1.28,1.69c-0.35,0.47-0.71,0.94-1.07,1.4c-0.15,0.2-0.15,0.22-0.01,0.41c0.41,0.54,0.82,1.09,1.24,1.63
		c0.43,0.57,0.86,1.14,1.29,1.7c0.33,0.44,0.66,0.87,0.99,1.3c0.03,0.03,0.06,0.07,0.02,0.11c-0.04,0.04-0.08,0-0.11-0.02
		c-0.34-0.21-0.68-0.42-1.02-0.63C43,35.68,41.91,35,40.82,34.32c-1.16-0.72-2.31-1.44-3.47-2.17c-0.87-0.54-1.74-1.06-2.59-1.62
		c-0.28-0.18-0.56-0.19-0.86-0.17c-1.03,0.05-2.07,0.1-3.1,0.15C29.97,30.55,29.15,30.59,28.31,30.63z" fill="white"/>
	<path d="M30.82,38.1c-0.04-0.02-0.09-0.04-0.14-0.07c-0.7-0.39-1.4-0.79-2.1-1.18c-0.8-0.45-1.61-0.9-2.41-1.36
		c-0.54-0.31-1.09-0.61-1.63-0.92c-0.22-0.12-0.33-0.34-0.48-0.53c-0.09-0.11-0.14-0.14-0.27-0.06c-1.57,0.99-3.14,1.97-4.71,2.95
		c-0.01,0.01-0.02,0.01-0.03,0.02c-0.06,0.02-0.12,0.11-0.18,0.05c-0.06-0.07,0.04-0.11,0.07-0.16c0.4-0.53,0.8-1.07,1.2-1.6
		c0.44-0.58,0.87-1.15,1.31-1.73c0.33-0.44,0.66-0.88,1-1.32c0.08-0.1,0.07-0.18,0-0.28c-0.51-0.66-1.01-1.32-1.51-1.99
		c-0.41-0.55-0.82-1.1-1.23-1.65c-0.25-0.34-0.51-0.67-0.76-1.01c-0.04-0.05-0.13-0.1-0.07-0.16c0.05-0.06,0.12,0.02,0.18,0.05
		c0.53,0.33,1.05,0.65,1.58,0.98c1.1,0.68,2.19,1.37,3.29,2.05c1.26,0.79,2.51,1.57,3.77,2.36c0.62,0.39,1.25,0.77,1.87,1.16
		c0.07,0.04,0.14,0.06,0.22,0.06c0.82-0.04,1.64-0.08,2.46-0.11c0.5-0.02,1.01-0.05,1.51-0.07c0.69-0.03,1.37-0.06,2.06-0.1
		c0.04,0,0.08,0,0.12,0c0.04,0,0.08-0.01,0.09,0.04c0.01,0.04-0.02,0.07-0.05,0.09c-0.17,0.15-0.33,0.3-0.5,0.45
		c-0.52,0.45-1.03,0.9-1.55,1.36c-0.55,0.48-1.1,0.97-1.65,1.45c-0.42,0.37-0.84,0.74-1.26,1.11C30.97,38.04,30.91,38.09,30.82,38.1
		z" fill="white"/>
	<path d="M19.17,8.61c0.09,0.02,0.06,0.08,0.04,0.12c-0.13,0.3-0.27,0.6-0.41,0.9c-0.72,1.57-1.43,3.13-2.15,4.7
		c-0.04,0.09-0.04,0.18-0.03,0.27c0.35,1.98,0.7,3.96,1.05,5.93c0.29,1.61,0.57,3.22,0.86,4.82c0.08,0.48,0.17,0.95,0.25,1.43
		c0,0.02,0.01,0.03,0.01,0.05c0,0.04,0.03,0.1-0.04,0.12c-0.05,0.01-0.07-0.04-0.09-0.07c-0.13-0.22-0.26-0.44-0.39-0.66
		c-0.45-0.74-0.9-1.47-1.34-2.21c-0.51-0.87-1.04-1.73-1.56-2.59c-0.46-0.75-0.9-1.52-1.36-2.28c-0.03-0.06-0.05-0.11-0.06-0.18
		c-0.17-1.34-0.35-2.68-0.53-4.02c-0.13-1.01-0.26-2.01-0.4-3.02c-0.02-0.16,0.03-0.23,0.17-0.3c0.92-0.45,1.83-0.92,2.75-1.38
		c0.61-0.31,1.22-0.62,1.84-0.93c0.43-0.22,0.86-0.43,1.29-0.65C19.1,8.64,19.14,8.63,19.17,8.61z" fill="white"/>
	<path d="M51.07,11.82c-0.07,0.51-0.13,1.03-0.2,1.54c-0.14,1.07-0.28,2.15-0.42,3.22c-0.1,0.76-0.2,1.52-0.29,2.28
		c-0.03,0.24-0.16,0.42-0.27,0.61c-0.34,0.59-0.71,1.16-1.06,1.75c-0.51,0.86-1.04,1.72-1.55,2.58c-0.4,0.66-0.79,1.32-1.19,1.98
		c-0.22,0.35-0.43,0.71-0.64,1.07c-0.03,0.05-0.04,0.14-0.12,0.11c-0.06-0.03-0.03-0.1-0.02-0.16c0.14-0.78,0.28-1.57,0.42-2.35
		c0.4-2.25,0.8-4.51,1.19-6.76c0.18-1.04,0.37-2.07,0.55-3.1c0.02-0.09,0-0.17-0.04-0.26c-0.55-1.19-1.09-2.39-1.64-3.58
		c-0.28-0.61-0.56-1.21-0.83-1.82c-0.03-0.06-0.05-0.12-0.08-0.19c-0.01-0.03-0.04-0.07-0.01-0.1C44.92,8.6,44.96,8.62,45,8.64
		c0.2,0.1,0.4,0.2,0.6,0.3c0.6,0.3,1.2,0.61,1.79,0.91c0.67,0.34,1.34,0.68,2,1.01c0.51,0.26,1.01,0.51,1.52,0.77
		C50.99,11.67,51.1,11.69,51.07,11.82z" fill="white"/>
	<path d="M13.02,52.32c0.07-0.52,0.13-1.03,0.2-1.53c0.14-1.09,0.29-2.18,0.43-3.26c0.1-0.75,0.2-1.5,0.29-2.24
		c0.03-0.24,0.16-0.42,0.27-0.61c0.34-0.59,0.71-1.16,1.06-1.75c0.51-0.86,1.04-1.72,1.55-2.58c0.4-0.66,0.79-1.32,1.19-1.98
		c0.22-0.35,0.43-0.71,0.64-1.07c0.03-0.05,0.04-0.13,0.11-0.11c0.08,0.02,0.04,0.11,0.03,0.16c-0.14,0.78-0.28,1.57-0.42,2.35
		c-0.4,2.26-0.8,4.52-1.2,6.78c-0.18,1.03-0.37,2.06-0.55,3.09c-0.02,0.09,0,0.16,0.04,0.24c0.55,1.2,1.1,2.39,1.64,3.59
		c0.28,0.61,0.56,1.21,0.83,1.82c0.03,0.06,0.05,0.12,0.08,0.19c0.01,0.03,0.04,0.07,0.01,0.1c-0.04,0.04-0.08,0.01-0.11-0.01
		c-0.2-0.1-0.4-0.2-0.6-0.3c-0.6-0.3-1.2-0.61-1.79-0.91c-0.67-0.34-1.34-0.68-2-1.01c-0.51-0.26-1.01-0.51-1.52-0.77
		C13.1,52.46,12.99,52.43,13.02,52.32z" fill="white"/>
	<path d="M51.07,52.33c0.02,0.09-0.07,0.12-0.14,0.15c-0.36,0.18-0.71,0.36-1.07,0.54c-0.53,0.27-1.07,0.54-1.6,0.81
		c-0.7,0.35-1.4,0.7-2.09,1.04c-0.39,0.19-0.77,0.39-1.15,0.59c-0.04,0.02-0.09,0.06-0.13,0.03c-0.06-0.04-0.01-0.1,0.01-0.14
		c0.4-0.87,0.79-1.73,1.19-2.6c0.46-1,0.91-2,1.37-3c0.03-0.07,0.03-0.14,0.02-0.21c-0.3-1.67-0.59-3.34-0.89-5.01
		c-0.34-1.94-0.69-3.88-1.04-5.82c-0.08-0.46-0.16-0.91-0.24-1.37c-0.01-0.03-0.01-0.06-0.01-0.09c0-0.03-0.01-0.07,0.03-0.08
		c0.04-0.02,0.07,0.02,0.09,0.05c0.07,0.12,0.14,0.24,0.22,0.36c0.29,0.49,0.58,0.97,0.87,1.46c0.37,0.62,0.73,1.23,1.1,1.85
		c0.34,0.57,0.69,1.14,1.03,1.71c0.37,0.61,0.74,1.23,1.11,1.85c0.07,0.11,0.12,0.23,0.2,0.33c0.19,0.25,0.2,0.54,0.24,0.83
		c0.17,1.31,0.34,2.62,0.52,3.93c0.12,0.9,0.24,1.79,0.35,2.69C51.07,52.26,51.07,52.29,51.07,52.33z" fill="white"/>
	<path d="M18.74,48.22c0.01-0.65,0.01-1.3,0.09-1.95c0.15-1.19,1.29-2.2,2.39-2.37c0.71-0.11,1.4-0.07,2.03,0.28
		c0.94,0.52,1.53,1.29,1.6,2.4c0.06,1.02,0.05,2.04,0.02,3.06c-0.02,0.69-0.2,1.32-0.67,1.85c-0.58,0.67-1.31,1.04-2.2,1.08
		c-1.09,0.05-1.97-0.35-2.65-1.19c-0.33-0.41-0.51-0.89-0.55-1.42C18.76,49.38,18.74,48.8,18.74,48.22z M23.56,48.2
		c-0.01-0.53,0.01-1.05-0.06-1.57c-0.11-0.79-0.74-1.4-1.5-1.44c-0.93-0.05-1.61,0.44-1.81,1.28c-0.06,0.26-0.08,0.53-0.08,0.79
		c-0.01,0.76-0.02,1.53,0.02,2.29c0.06,1.16,0.96,1.74,1.82,1.69c0.76-0.05,1.44-0.65,1.55-1.41C23.57,49.3,23.56,48.75,23.56,48.2z
		" fill="white"/>
	<path d="M38.55,48.21c0-1.36,0-2.72,0-4.08c0-0.21,0-0.21,0.2-0.21c1.08,0,2.17-0.01,3.25,0.01c0.88,0.02,1.6,0.39,2.09,1.12
		c0.9,1.37,0.37,3.16-0.99,3.85c-0.34,0.17-0.72,0.25-1.1,0.26c-0.62,0-1.24,0-1.86,0.01c-0.26,0-0.26,0-0.26,0.25
		c0,0.96,0,1.92,0,2.87c0,0.22,0,0.22-0.21,0.22c-0.3,0-0.6,0-0.91,0c-0.21,0-0.21,0-0.21-0.21C38.55,50.94,38.55,49.58,38.55,48.21
		z M39.88,46.55c0,0.4,0,0.8,0,1.2c0,0.11,0.04,0.16,0.15,0.16c0.63,0,1.27,0,1.9-0.01c0.17,0,0.33-0.04,0.48-0.11
		c0.86-0.37,0.93-1.53,0.56-2.07c-0.05-0.07-0.11-0.14-0.18-0.19c-0.26-0.2-0.56-0.33-0.89-0.33c-0.62,0-1.24,0-1.86-0.01
		c-0.13,0-0.17,0.05-0.17,0.17C39.88,45.76,39.88,46.15,39.88,46.55z" fill="white"/>
	<path d="M30.03,48.22c0,0.53,0,1.06,0.07,1.59c0.11,0.81,0.78,1.41,1.59,1.44c0.74,0.02,1.25-0.33,1.58-0.96
		c0.08-0.16,0.18-0.21,0.35-0.2c0.34,0.01,0.68,0.01,1.02,0c0.1,0,0.14,0.03,0.11,0.14c-0.31,1.15-0.97,1.97-2.16,2.26
		c-1.33,0.32-2.46-0.05-3.33-1.13c-0.33-0.41-0.49-0.89-0.53-1.41c-0.06-0.79-0.08-1.58-0.05-2.37c0.02-0.55-0.02-1.12,0.16-1.66
		c0.38-1.11,1.16-1.78,2.31-2.01c0.82-0.16,1.62-0.04,2.33,0.44c0.67,0.46,1.08,1.11,1.27,1.9c0.03,0.13,0,0.17-0.13,0.17
		c-0.36-0.01-0.72-0.01-1.08,0c-0.13,0-0.18-0.05-0.23-0.16c-0.46-1.17-1.75-1.29-2.49-0.81c-0.5,0.33-0.72,0.81-0.76,1.4
		C30.04,47.3,30.04,47.76,30.03,48.22z" fill="white"/>
	<path d="M27.29,51.89c0,0.16,0,0.32,0,0.48c0,0.1-0.03,0.14-0.14,0.14c-0.33,0-0.67,0-1,0c-0.09,0-0.13-0.04-0.13-0.13
		c0-0.33,0-0.67,0-1c0-0.1,0.05-0.14,0.14-0.14c0.33,0,0.65,0,0.98,0c0.1,0,0.14,0.04,0.14,0.14
		C27.29,51.55,27.29,51.72,27.29,51.89z" fill="white"/>
	<path d="M36.85,51.89c0,0.16,0,0.32,0,0.48c0,0.1-0.04,0.14-0.14,0.14c-0.33,0-0.65,0-0.98,0c-0.11,0-0.15-0.04-0.15-0.15
		c0-0.32,0-0.64,0-0.97c0-0.11,0.04-0.15,0.15-0.15c0.32,0,0.64,0,0.97,0c0.11,0,0.16,0.05,0.15,0.16
		C36.85,51.57,36.85,51.73,36.85,51.89z" fill="white"/>
	<path d="M44.68,52.51c-0.16,0-0.32,0-0.48,0c-0.1,0-0.14-0.04-0.14-0.14c0-0.33,0-0.65,0-0.98c0-0.11,0.05-0.14,0.15-0.14
		c0.32,0,0.64,0,0.97,0c0.1,0,0.15,0.04,0.15,0.15c0,0.32,0,0.64,0,0.97c0,0.12-0.05,0.15-0.16,0.15
		C45,52.51,44.84,52.51,44.68,52.51z" fill="white"/>
</g>
</svg>
